<svg width="14" height="16" viewBox="0 0 14 16" fill="none" xmlns="http://www.w3.org/2000/svg">
<path opacity="0.4" d="M13.2395 14.2972L13.2817 14.4519L13.406 14.5532C13.4635 14.6001 13.5 14.6726 13.5 14.75V15.25C13.5 15.3895 13.3895 15.5 13.25 15.5H3C1.61989 15.5 0.5 14.3801 0.5 13V3C0.5 1.61989 1.61989 0.5 3 0.5H13.25C13.3895 0.5 13.5 0.610517 13.5 0.75V11.25C13.5 11.3284 13.4629 11.3983 13.4104 11.4401L13.2825 11.542L13.2395 11.6997C13.1547 12.0107 13.1234 12.5332 13.1234 12.9984C13.1234 13.4637 13.1547 13.9862 13.2395 14.2972ZM11.9187 14.5H12.4774L12.4157 13.9448C12.3604 13.4471 12.3604 12.5529 12.4157 12.0552L12.4774 11.5H11.9187H3C2.17386 11.5 1.5 12.1739 1.5 13C1.5 13.8293 2.17073 14.5 3 14.5H11.9187ZM4.1875 3.5C3.80823 3.5 3.5 3.80823 3.5 4.1875V4.8125C3.5 5.19177 3.80823 5.5 4.1875 5.5C3.80823 5.5 3.5 5.80823 3.5 6.1875V6.8125C3.5 7.19177 3.80823 7.5 4.1875 7.5H10.8125C11.1918 7.5 11.5 7.19177 11.5 6.8125V6.1875C11.5 5.80823 11.1918 5.5 10.8125 5.5C11.1918 5.5 11.5 5.19177 11.5 4.8125V4.1875C11.5 3.80823 11.1918 3.5 10.8125 3.5H4.1875Z" fill="#333333" stroke="#333333"/>
</svg>
