<svg width="16" height="16" viewBox="0 0 16 16" fill="none" xmlns="http://www.w3.org/2000/svg">
<path d="M8 13.2101C9.43351 13.2101 10.5955 12.0103 10.5955 10.5304C10.5955 9.05039 9.43347 7.85061 8 7.85061C6.56649 7.85061 5.40445 9.05039 5.40445 10.5304C5.40445 12.0104 6.56653 13.2101 8 13.2101ZM8 8.95186C8.84439 8.95186 9.52889 9.65857 9.52889 10.5304C9.52889 11.4021 8.84439 12.1088 8 12.1088C7.15561 12.1088 6.47111 11.4021 6.47111 10.5304C6.47111 9.65855 7.15561 8.95184 8 8.95184V8.95186ZM8 3.14597e-07L5.184 2.80749L5.92499 3.59969L8.00073 1.53077L10.0765 3.59969L10.8174 2.80749L8 3.14597e-07ZM8.53331 0.875871H7.46669V4.2164C7.46547 4.68218 7.10006 5.05945 6.64902 5.0607H0V16H16V5.0607H10.1689V6.16198H14.9333V14.8988H1.06667V6.16198H6.64891C7.68918 6.16073 8.53213 5.29042 8.53334 4.21653V4.21641L8.53331 0.875871ZM13.4044 9.97972H12.0533V11.081H13.4044V9.97972ZM3.94665 9.97972H2.59556V11.081H3.94665V9.97972Z" fill="#333333"/>
</svg>
