<svg width="16" height="16" viewBox="0 0 16 16" fill="none" xmlns="http://www.w3.org/2000/svg">
<path d="M8 2.78988C9.43351 2.78988 10.5955 3.98965 10.5955 5.46963C10.5955 6.94961 9.43347 8.14939 8 8.14939C6.56649 8.14939 5.40445 6.94961 5.40445 5.46963C5.40445 3.98962 6.56653 2.78988 8 2.78988ZM8 7.04814C8.84439 7.04814 9.52889 6.34143 9.52889 5.46965C9.52889 4.59787 8.84439 3.89119 8 3.89119C7.15561 3.89119 6.47111 4.59788 6.47111 5.46965C6.47111 6.34145 7.15561 7.04816 8 7.04816V7.04814ZM8 16L5.184 13.1925L5.92499 12.4003L8.00073 14.4692L10.0765 12.4003L10.8174 13.1925L8 16ZM8.53331 15.1241H7.46669V11.7836C7.46547 11.3178 7.10006 10.9405 6.64902 10.9393H0V0H16V10.9393H10.1689V9.83802H14.9333V1.10124H1.06667V9.83802H6.64891C7.68918 9.83927 8.53213 10.7096 8.53334 11.7835V11.7836L8.53331 15.1241ZM13.4044 6.02028H12.0533V4.91902H13.4044V6.02028ZM3.94665 6.02028H2.59556V4.91902H3.94665V6.02028Z" fill="#333333"/>
</svg>
